<svg aria-hidden="true" style="position: absolute; width: 0; height: 0; overflow: hidden;" version="1.1" xmlns="http://www.w3.org/2000/svg" xmlns:xlink="http://www.w3.org/1999/xlink">
<defs>
<symbol id="icon-zoom" viewBox="0 0 32 32">
<path d="M27.414 24.586l-5.077-5.077c1.049-1.581 1.663-3.474 1.663-5.509 0-5.514-4.486-10-10-10s-10 4.486-10 10 4.486 10 10 10c2.035 0 3.928-0.614 5.509-1.663l5.077 5.077c0.78 0.781 2.048 0.781 2.828 0 0.781-0.781 0.781-2.047 0-2.828zM7 14c0-3.86 3.14-7 7-7s7 3.14 7 7-3.14 7-7 7-7-3.14-7-7z"></path>
</symbol>
</defs>
</svg>
